<svg width="14" height="14" viewBox="0 0 14 14" fill="none" xmlns="http://www.w3.org/2000/svg">
<path d="M6 2H8C8 1.73478 7.89464 1.48043 7.70711 1.29289C7.51957 1.10536 7.26522 1 7 1C6.73478 1 6.48043 1.10536 6.29289 1.29289C6.10536 1.48043 6 1.73478 6 2ZM5 2C5 1.46957 5.21071 0.960859 5.58579 0.585786C5.96086 0.210714 6.46957 0 7 0C7.53043 0 8.03914 0.210714 8.41421 0.585786C8.78929 0.960859 9 1.46957 9 2H13C13.1326 2 13.2598 2.05268 13.3536 2.14645C13.4473 2.24021 13.5 2.36739 13.5 2.5C13.5 2.63261 13.4473 2.75979 13.3536 2.85355C13.2598 2.94732 13.1326 3 13 3H12.436L11.231 11.838C11.1493 12.4369 10.8533 12.986 10.3979 13.3835C9.94249 13.781 9.35848 14 8.754 14H5.246C4.64152 14 4.05751 13.781 3.6021 13.3835C3.14669 12.986 2.85073 12.4369 2.769 11.838L1.564 3H1C0.867392 3 0.740215 2.94732 0.646447 2.85355C0.552678 2.75979 0.5 2.63261 0.5 2.5C0.5 2.36739 0.552678 2.24021 0.646447 2.14645C0.740215 2.05268 0.867392 2 1 2H5ZM6 5.5C6 5.36739 5.94732 5.24021 5.85355 5.14645C5.75979 5.05268 5.63261 5 5.5 5C5.36739 5 5.24021 5.05268 5.14645 5.14645C5.05268 5.24021 5 5.36739 5 5.5V10.5C5 10.6326 5.05268 10.7598 5.14645 10.8536C5.24021 10.9473 5.36739 11 5.5 11C5.63261 11 5.75979 10.9473 5.85355 10.8536C5.94732 10.7598 6 10.6326 6 10.5V5.5ZM8.5 5C8.63261 5 8.75979 5.05268 8.85355 5.14645C8.94732 5.24021 9 5.36739 9 5.5V10.5C9 10.6326 8.94732 10.7598 8.85355 10.8536C8.75979 10.9473 8.63261 11 8.5 11C8.36739 11 8.24021 10.9473 8.14645 10.8536C8.05268 10.7598 8 10.6326 8 10.5V5.5C8 5.36739 8.05268 5.24021 8.14645 5.14645C8.24021 5.05268 8.36739 5 8.5 5ZM3.76 11.703C3.80908 12.0623 3.98664 12.3916 4.25984 12.6301C4.53304 12.8685 4.88337 13 5.246 13H8.754C9.1168 13.0002 9.46737 12.8689 9.74078 12.6304C10.0142 12.3919 10.1919 12.0625 10.241 11.703L11.427 3H2.573L3.76 11.703Z" fill="#FEFEFE"/>
</svg>
